<svg xmlns="http://www.w3.org/2000/svg" width="1200" height="675" viewBox="0 0 1200 675">
  <defs>
    <radialGradient id="g1" cx="18%" cy="18%" r="80%">
      <stop offset="0" stop-color="#d4af37" stop-opacity="0.75"/>
      <stop offset="0.45" stop-color="#6b1d12" stop-opacity="0.28"/>
      <stop offset="1" stop-color="#1b1208" stop-opacity="1"/>
    </radialGradient>
    <linearGradient id="g2" x1="0" x2="1" y1="0" y2="1">
      <stop offset="0" stop-color="#1b1208"/>
      <stop offset="1" stop-color="#050806"/>
    </linearGradient>
    <filter id="shadow" x="-20%" y="-20%" width="140%" height="140%">
      <feDropShadow dx="0" dy="18" stdDeviation="22" flood-color="#000" flood-opacity="0.55"/>
    </filter>
  </defs>
  <rect width="1200" height="675" fill="url(#g2)"/>
  <rect width="1200" height="675" fill="url(#g1)"/>
  <path d="M0 520 C210 420 360 610 560 520 C760 430 930 510 1200 370 L1200 675 L0 675 Z" fill="#000" opacity="0.32"/>
  <path d="M0 92 H1200" stroke="#d4af37" stroke-width="4" opacity="0.30"/>
  <path d="M0 586 H1200" stroke="#d4af37" stroke-width="4" opacity="0.26"/>
  <circle cx="935" cy="185" r="190" fill="none" stroke="#d4af37" stroke-width="3" opacity="0.28"/>
  <circle cx="935" cy="185" r="118" fill="none" stroke="#fff" stroke-width="2" opacity="0.10"/>
  <g opacity="0.10" fill="#fff">
    <rect x="730" y="440" width="92" height="132" rx="14" transform="rotate(-9 730 440)"/>
    <rect x="835" y="420" width="92" height="132" rx="14" transform="rotate(5 835 420)"/>
    <rect x="940" y="448" width="92" height="132" rx="14" transform="rotate(14 940 448)"/>
  </g>
  <g filter="url(#shadow)">
    <rect x="72" y="96" width="560" height="390" rx="34" fill="#050806" opacity="0.58" stroke="#d4af37" stroke-width="2"/>
    <text x="120" y="238" font-family="Arial, sans-serif" font-size="94" font-weight="900" fill="#d4af37">⚔</text>
    <text x="120" y="330" font-family="Arial, sans-serif" font-size="72" font-weight="900" fill="#fff6d8">Flesh and Blood</text>
    <text x="120" y="390" font-family="Arial, sans-serif" font-size="34" font-weight="700" fill="#f6f1df" opacity="0.82">Arena de Rathe</text>
  </g>
</svg>